<mxfile host="app.diagrams.net" modified="2023-05-31T08:20:02.836Z" agent="Mozilla/5.0 (Windows NT 10.0; Win64; x64) AppleWebKit/537.36 (KHTML, like Gecko) Chrome/113.0.0.0 Safari/537.36" etag="Iy0WaKG0bBKGmUAl-qNz" version="21.1.9" type="device">
  <diagram id="C5RBs43oDa-KdzZeNtuy" name="Page-1">
    <mxGraphModel dx="1194" dy="738" grid="0" gridSize="10" guides="1" tooltips="1" connect="1" arrows="1" fold="1" page="1" pageScale="1" pageWidth="827" pageHeight="1169" math="0" shadow="0">
      <root>
        <mxCell id="WIyWlLk6GJQsqaUBKTNV-0" />
        <mxCell id="WIyWlLk6GJQsqaUBKTNV-1" parent="WIyWlLk6GJQsqaUBKTNV-0" />
        <mxCell id="JfHkFG72cBntnM0QOqyX-23" value="" style="endArrow=open;endFill=1;endSize=10;html=1;rounded=0;dashed=1;dashPattern=8 8;hachureGap=4;fontFamily=Architects Daughter;fontSource=https%3A%2F%2Ffonts.googleapis.com%2Fcss%3Ffamily%3DArchitects%2BDaughter;fontSize=16;exitX=0.5;exitY=0;exitDx=0;exitDy=0;entryX=0.5;entryY=1;entryDx=0;entryDy=0;labelBackgroundColor=none;fontColor=default;edgeStyle=orthogonalEdgeStyle;" parent="WIyWlLk6GJQsqaUBKTNV-1" source="6CKXbF88nHvVZv1ErBIG-8" target="6CKXbF88nHvVZv1ErBIG-5" edge="1">
          <mxGeometry width="160" relative="1" as="geometry">
            <mxPoint x="305" y="508" as="sourcePoint" />
            <mxPoint x="420" y="440" as="targetPoint" />
          </mxGeometry>
        </mxCell>
        <mxCell id="JfHkFG72cBntnM0QOqyX-24" value="" style="endArrow=open;endFill=1;endSize=10;html=1;rounded=0;dashed=1;dashPattern=8 8;hachureGap=4;fontFamily=Architects Daughter;fontSource=https%3A%2F%2Ffonts.googleapis.com%2Fcss%3Ffamily%3DArchitects%2BDaughter;fontSize=16;exitX=0.5;exitY=0;exitDx=0;exitDy=0;entryX=0.5;entryY=1;entryDx=0;entryDy=0;labelBackgroundColor=none;fontColor=default;edgeStyle=orthogonalEdgeStyle;" parent="WIyWlLk6GJQsqaUBKTNV-1" source="6CKXbF88nHvVZv1ErBIG-8" target="6CKXbF88nHvVZv1ErBIG-4" edge="1">
          <mxGeometry width="160" relative="1" as="geometry">
            <mxPoint x="305" y="508" as="sourcePoint" />
            <mxPoint x="186" y="440" as="targetPoint" />
          </mxGeometry>
        </mxCell>
        <mxCell id="JfHkFG72cBntnM0QOqyX-26" value="" style="html=1;verticalAlign=bottom;labelBackgroundColor=none;startArrow=oval;startFill=0;startSize=8;endArrow=none;rounded=0;entryX=0;entryY=0.5;entryDx=0;entryDy=0;entryPerimeter=0;dashed=1;dashPattern=8 8;exitX=1;exitY=0.5;exitDx=0;exitDy=0;" parent="WIyWlLk6GJQsqaUBKTNV-1" source="6CKXbF88nHvVZv1ErBIG-9" target="JfHkFG72cBntnM0QOqyX-27" edge="1">
          <mxGeometry x="-0.0549" y="19" relative="1" as="geometry">
            <mxPoint x="487" y="564.8833865814697" as="sourcePoint" />
            <mxPoint x="563" y="568" as="targetPoint" />
            <mxPoint x="-1" as="offset" />
          </mxGeometry>
        </mxCell>
        <mxCell id="JfHkFG72cBntnM0QOqyX-27" value="&lt;div&gt;if (type == APPLE) {&lt;/div&gt;&lt;div&gt;&amp;nbsp; &amp;nbsp; return new ApplePhone();&lt;/div&gt;&lt;div&gt;&lt;span style=&quot;&quot;&gt;  &lt;/span&gt;} else {&lt;/div&gt;&lt;div&gt;&lt;span style=&quot;&quot;&gt;&lt;/span&gt;&amp;nbsp; &amp;nbsp; return new HWPhone();&lt;/div&gt;&lt;div&gt;&lt;span style=&quot;&quot;&gt;  &lt;/span&gt;}&lt;/div&gt;" style="shape=note2;boundedLbl=1;whiteSpace=wrap;html=1;size=25;verticalAlign=middle;align=left;labelPosition=center;verticalLabelPosition=middle;" parent="WIyWlLk6GJQsqaUBKTNV-1" vertex="1">
          <mxGeometry x="583" y="500" width="164" height="110" as="geometry" />
        </mxCell>
        <mxCell id="KvQIOQ0rV3JAbYufkzTC-3" value="Client" style="html=1;" parent="WIyWlLk6GJQsqaUBKTNV-1" vertex="1">
          <mxGeometry x="492" y="245.75" width="87" height="37.25" as="geometry" />
        </mxCell>
        <mxCell id="6CKXbF88nHvVZv1ErBIG-3" value="&lt;i&gt;«interface»&lt;/i&gt;&lt;br&gt;&lt;b&gt;&lt;i&gt;Phone&lt;/i&gt;&lt;/b&gt;" style="html=1;" parent="WIyWlLk6GJQsqaUBKTNV-1" vertex="1">
          <mxGeometry x="242" y="239.37" width="110" height="50" as="geometry" />
        </mxCell>
        <mxCell id="6CKXbF88nHvVZv1ErBIG-4" value="ApplePhone" style="swimlane;fontStyle=1;align=center;verticalAlign=top;childLayout=stackLayout;horizontal=1;startSize=26;horizontalStack=0;resizeParent=1;resizeParentMax=0;resizeLast=0;collapsible=1;marginBottom=0;" parent="WIyWlLk6GJQsqaUBKTNV-1" vertex="1">
          <mxGeometry x="121" y="404" width="130" height="30" as="geometry" />
        </mxCell>
        <mxCell id="6CKXbF88nHvVZv1ErBIG-5" value="HWPhone" style="swimlane;fontStyle=1;align=center;verticalAlign=top;childLayout=stackLayout;horizontal=1;startSize=26;horizontalStack=0;resizeParent=1;resizeParentMax=0;resizeLast=0;collapsible=1;marginBottom=0;" parent="WIyWlLk6GJQsqaUBKTNV-1" vertex="1">
          <mxGeometry x="350" y="404" width="120" height="30" as="geometry" />
        </mxCell>
        <mxCell id="6CKXbF88nHvVZv1ErBIG-6" value="" style="endArrow=block;dashed=1;endFill=0;endSize=10;html=1;rounded=0;exitX=0.5;exitY=0;exitDx=0;exitDy=0;entryX=0.5;entryY=1;entryDx=0;entryDy=0;dashPattern=8 8;edgeStyle=orthogonalEdgeStyle;elbow=vertical;" parent="WIyWlLk6GJQsqaUBKTNV-1" source="6CKXbF88nHvVZv1ErBIG-4" target="6CKXbF88nHvVZv1ErBIG-3" edge="1">
          <mxGeometry width="160" relative="1" as="geometry">
            <mxPoint x="218" y="328.37" as="sourcePoint" />
            <mxPoint x="296.5" y="264.37" as="targetPoint" />
          </mxGeometry>
        </mxCell>
        <mxCell id="6CKXbF88nHvVZv1ErBIG-7" value="" style="endArrow=block;dashed=1;endFill=0;endSize=10;html=1;rounded=0;exitX=0.5;exitY=0;exitDx=0;exitDy=0;entryX=0.5;entryY=1;entryDx=0;entryDy=0;dashPattern=8 8;edgeStyle=orthogonalEdgeStyle;elbow=vertical;" parent="WIyWlLk6GJQsqaUBKTNV-1" source="6CKXbF88nHvVZv1ErBIG-5" target="6CKXbF88nHvVZv1ErBIG-3" edge="1">
          <mxGeometry width="160" relative="1" as="geometry">
            <mxPoint x="380" y="328.37" as="sourcePoint" />
            <mxPoint x="296.5" y="264.37" as="targetPoint" />
          </mxGeometry>
        </mxCell>
        <mxCell id="6CKXbF88nHvVZv1ErBIG-8" value="PhoneFactory" style="swimlane;fontStyle=1;align=center;verticalAlign=top;childLayout=stackLayout;horizontal=1;startSize=26;horizontalStack=0;resizeParent=1;resizeParentMax=0;resizeLast=0;collapsible=1;marginBottom=0;" parent="WIyWlLk6GJQsqaUBKTNV-1" vertex="1">
          <mxGeometry x="211" y="520" width="186" height="56" as="geometry" />
        </mxCell>
        <mxCell id="6CKXbF88nHvVZv1ErBIG-9" value="+ createPhone(int): Phone" style="text;strokeColor=none;fillColor=none;align=left;verticalAlign=top;spacingLeft=4;spacingRight=4;overflow=hidden;rotatable=0;points=[[0,0.5],[1,0.5]];portConstraint=eastwest;" parent="6CKXbF88nHvVZv1ErBIG-8" vertex="1">
          <mxGeometry y="26" width="186" height="30" as="geometry" />
        </mxCell>
        <mxCell id="62C9OJM37SPuQ4ea0wcE-0" value="" style="endArrow=open;endFill=1;endSize=10;html=1;rounded=0;hachureGap=4;fontFamily=Architects Daughter;fontSource=https%3A%2F%2Ffonts.googleapis.com%2Fcss%3Ffamily%3DArchitects%2BDaughter;fontSize=16;labelBackgroundColor=none;fontColor=default;edgeStyle=orthogonalEdgeStyle;entryX=1;entryY=0.5;entryDx=0;entryDy=0;" parent="WIyWlLk6GJQsqaUBKTNV-1" source="KvQIOQ0rV3JAbYufkzTC-3" target="6CKXbF88nHvVZv1ErBIG-3" edge="1">
          <mxGeometry width="160" relative="1" as="geometry">
            <mxPoint x="314" y="530" as="sourcePoint" />
            <mxPoint x="346" y="258" as="targetPoint" />
          </mxGeometry>
        </mxCell>
        <mxCell id="62C9OJM37SPuQ4ea0wcE-1" value="" style="endArrow=open;endFill=1;endSize=10;html=1;rounded=0;hachureGap=4;fontFamily=Architects Daughter;fontSource=https%3A%2F%2Ffonts.googleapis.com%2Fcss%3Ffamily%3DArchitects%2BDaughter;fontSize=16;labelBackgroundColor=none;fontColor=default;edgeStyle=orthogonalEdgeStyle;exitX=0.5;exitY=1;exitDx=0;exitDy=0;entryX=1;entryY=0.25;entryDx=0;entryDy=0;" parent="WIyWlLk6GJQsqaUBKTNV-1" source="KvQIOQ0rV3JAbYufkzTC-3" target="6CKXbF88nHvVZv1ErBIG-8" edge="1">
          <mxGeometry width="160" relative="1" as="geometry">
            <mxPoint x="502" y="275" as="sourcePoint" />
            <mxPoint x="358" y="275" as="targetPoint" />
          </mxGeometry>
        </mxCell>
      </root>
    </mxGraphModel>
  </diagram>
</mxfile>
